REM GENRE Anime
REM DATE 2016
REM DISCID 21038104
REM COMMENT "ExactAudioCopy v1.0b3"
CATALOG 4562475258103
PERFORMER "3年E組うた担(渚&茅野&業&磯貝&前原)"
TITLE "QUESTION"
FILE "3年E組うた担(渚&茅野&業&磯貝&前原)  - QUESTION.wav" WAVE
  TRACK 01 AUDIO
    TITLE "QUESTION"
    PERFORMER "3年E組うた担(渚&茅野&業&磯貝&前原)"
    ISRC JPT551600062
    INDEX 01 00:00:00
  TRACK 02 AUDIO
    TITLE "3年E組うた担"
    PERFORMER "3年E組うた担(渚&茅野&業&磯貝&前原)"
    ISRC JPT551600090
    INDEX 00 04:26:17
    INDEX 01 04:29:27
  TRACK 03 AUDIO
    TITLE "QUESTION (Instrumental)"
    PERFORMER "3年E組うた担(渚&茅野&業&磯貝&前原)"
    ISRC JPT551600092
    INDEX 00 07:26:71
    INDEX 01 07:30:07
  TRACK 04 AUDIO
    TITLE "3年E組うた担 (Instrumental)"
    PERFORMER "3年E組うた担(渚&茅野&業&磯貝&前原)"
    ISRC JPT551600091
    INDEX 00 11:56:12
    INDEX 01 11:59:22
